<?xml version="1.0" encoding="UTF-8"?>
<svg id="Capa_1" data-name="Capa 1" xmlns="http://www.w3.org/2000/svg" viewBox="0 0 613.5 290">
  <polygon points="2.57 14.82 2.57 23.83 31.24 23.83 31.24 93.69 42.01 93.69 42.01 23.83 71.18 23.83 71.18 14.82 2.57 14.82"/>
  <path d="M107.61,95.2c-23.03,0-39.19-16.66-39.19-40.94S84.58,13.31,107.61,13.31s39.19,16.66,39.19,40.94-16.27,40.94-39.19,40.94m0-72.62c-17.03,0-28.04,12.39-28.04,31.67s11.02,31.67,28.04,31.67,27.92-12.39,27.92-31.67-10.89-31.67-27.92-31.67"/>
  <polygon points="189.74 93.69 165.83 25.84 165.33 25.84 165.33 93.69 155.19 93.69 155.19 14.82 172.59 14.82 194.75 79.04 195.12 79.04 216.16 14.82 233.31 14.82 233.31 93.69 222.42 93.69 222.42 25.84 221.92 25.84 198.88 93.69 189.74 93.69"/>
  <path d="M283.39,14.81l32.8,78.88h-11.52l-9.52-23.16h-35.93l-9.26,23.16h-10.65L271.5,14.81h11.89Zm-20.78,47.08h29.05l-14.4-35.06h-.5l-14.15,35.06Z"/>
  <path d="M326.21,64.9c.63,14.4,10.51,21.78,23.79,21.78,11.77,0,19.15-5,19.15-13.65,0-7.26-4.76-10.76-15.03-12.77l-15.65-3c-11.65-2.26-19.66-8.51-19.66-20.78,0-13.77,10.89-23.16,28.17-23.16,19.78,0,31.17,10.52,31.3,28.29l-9.89,.5c-.38-13.02-8.26-20.41-21.29-20.41-11.39,0-17.77,5.38-17.77,14.14,0,7.77,5.13,10.27,14.27,12.02l14.27,2.75c14.4,2.75,21.66,9.01,21.66,21.66,0,14.52-12.52,22.91-29.55,22.91-19.4,0-33.55-10.65-33.55-29.67l9.77-.63Z"/>
  <path d="M145.64,188.34c-1.5-2.13-2.63-7.89-3.26-17.15-.5-8.77-4.63-14.65-15.4-14.65h-22.29v31.8h-10.64V109.46h32.05c20.03,0,29.67,9.27,29.67,23.29,0,12.14-8.26,18.53-17.91,19.65,9.64,1.88,14.27,7.77,15.03,17.03,1,11.52,1.37,16.03,4.01,18.91h-11.27Zm-20.16-40.44c13.4,0,19.4-5.01,19.4-14.78,0-9.01-6.01-14.77-19.4-14.77h-20.78v29.55h20.78Z"/>
  <polygon points="222.13 188.34 165.92 188.34 165.92 109.47 221.01 109.47 221.01 118.48 176.43 118.48 176.43 143.27 211.87 143.27 211.87 152.16 176.43 152.16 176.43 179.33 222.13 179.33 222.13 188.34"/>
  <path d="M231.4,109.47h28.54c24.79,0,40.44,14.77,40.44,39.43s-15.65,39.44-40.44,39.44h-28.54V109.47Zm27.92,69.98c19.28,0,29.8-11.4,29.8-30.55s-10.51-30.55-29.8-30.55h-17.03v61.1h17.03Z"/>
  <path d="M360.35,188.34c-1.5-2.13-2.63-7.89-3.26-17.15-.5-8.77-4.63-14.65-15.4-14.65h-22.29v31.8h-10.64V109.46h32.05c20.03,0,29.67,9.27,29.67,23.29,0,12.14-8.26,18.53-17.91,19.65,9.64,1.88,14.27,7.77,15.03,17.03,1,11.52,1.37,16.03,4.01,18.91h-11.27Zm-20.16-40.44c13.4,0,19.4-5.01,19.4-14.78,0-9.01-6.01-14.77-19.4-14.77h-20.78v29.55h20.78Z"/>
  <path d="M418.57,109.46l32.8,78.88h-11.52l-9.52-23.16h-35.93l-9.26,23.16h-10.65l32.18-78.88h11.89Zm-20.78,47.08h29.05l-14.4-35.06h-.5l-14.15,35.06Z"/>
  <path d="M457.38,109.47h28.54c24.79,0,40.44,14.77,40.44,39.43s-15.65,39.44-40.44,39.44h-28.54V109.47Zm27.92,69.98c19.28,0,29.8-11.4,29.8-30.55s-10.51-30.55-29.8-30.55h-17.03v61.1h17.03Z"/>
  <path d="M570.43,189.84c-23.03,0-39.19-16.66-39.19-40.94s16.15-40.94,39.19-40.94,39.19,16.66,39.19,40.94-16.27,40.94-39.19,40.94m0-72.62c-17.03,0-28.04,12.39-28.04,31.67s11.02,31.68,28.04,31.68,27.92-12.39,27.92-31.68-10.89-31.67-27.92-31.67"/>
  <path d="M233.55,204.11l32.8,78.88h-11.52l-9.52-23.16h-35.93l-9.26,23.16h-10.65l32.18-78.88h11.89Zm-20.78,47.08h29.05l-14.4-35.06h-.5l-14.15,35.06Z"/>
  <path d="M323.94,282.98c-1.5-2.13-2.63-7.89-3.25-17.15-.5-8.77-4.63-14.65-15.4-14.65h-22.29v31.8h-10.64v-78.87h32.05c20.03,0,29.67,9.27,29.67,23.29,0,12.14-8.26,18.53-17.91,19.65,9.64,1.88,14.27,7.77,15.03,17.03,1,11.52,1.37,16.03,4.01,18.91h-11.27Zm-20.16-40.44c13.4,0,19.4-5.01,19.4-14.78,0-9.01-6.01-14.77-19.4-14.77h-20.78v29.55h20.78Z"/>
  <polygon points="365.13 282.99 365.13 213.12 336.46 213.12 336.46 204.11 405.07 204.11 405.07 213.12 375.9 213.12 375.9 282.99 365.13 282.99"/>
  <polygon points="189.1 259.9 2.57 259.9 2.57 251.19 192.65 251.19 189.1 259.9"/>
</svg>